<?xml version="1.0" encoding="UTF-8"?>
<svg width="512px" height="512px" viewBox="0 0 512 512" version="1.1" xmlns="http://www.w3.org/2000/svg" xmlns:xlink="http://www.w3.org/1999/xlink">
    <title>Artboard</title>
    <g id="Artboard" stroke="none" stroke-width="1" fill="none" fill-rule="evenodd">
        <rect fill="#151515" x="0" y="0" width="512" height="512"></rect>
        <g id="cinskafa" transform="translate(70.000000, 35.000000)" fill="#FFFFFF" fill-rule="nonzero">
            <path d="M372,406.238075 L336.272834,442 L217.388496,323 L217.388496,442 L166.438068,442 L166.438068,310.060526 C160.079011,383.984329 98.116228,442 22.6163298,442 C14.9221198,442 7.36850182,441.397467 0,440.23697 C68.9840813,429.372356 121.743222,369.603452 121.743222,297.5 C121.743222,225.396549 68.9840813,165.627645 0,154.763031 C7.36850182,153.602533 14.9221198,153 22.6163298,153 C98.116228,153 160.079011,211.015672 166.438068,284.939474 L166.438068,0 L217.388496,0 L217.388496,272 L336.272834,153 L372,188.761926 L263.367615,297.5 L372,406.238075 Z" id="Combined-Shape"></path>
        </g>
    </g>
</svg>